<?xml version="1.0" encoding="UTF-8"?>
<!DOCTYPE svg PUBLIC "-//W3C//DTD SVG 1.1//EN" "http://www.w3.org/Graphics/SVG/1.1/DTD/svg11.dtd">
<!-- Creator: CorelDRAW 2018 (64-Bit) -->
<svg xmlns="http://www.w3.org/2000/svg" xml:space="preserve" width="2.38797in" height="2.38797in" version="1.1" style="shape-rendering:geometricPrecision; text-rendering:geometricPrecision; image-rendering:optimizeQuality; fill-rule:evenodd; clip-rule:evenodd"
viewBox="0 0 535.01 535.01"
 xmlns:xlink="http://www.w3.org/1999/xlink">
 <defs>
  <style type="text/css">
   <![CDATA[
    .fil0 {fill:#2C3036}
   ]]>
  </style>
 </defs>
 <g id="Layer_x0020_1">
  <metadata id="CorelCorpID_0Corel-Layer"/>
  <path class="fil0" d="M535.01 264.55c-1.58,-145.41 -119.14,-262.98 -264.55,-264.55 3.58,118.45 6.55,172.62 48.73,215.81 43.21,42.2 97.38,45.16 215.82,48.74zm-270.47 -264.55c-145.41,1.58 -262.97,119.14 -264.55,264.55 118.44,-3.58 172.61,-6.54 215.81,-48.74 42.19,-43.2 45.16,-97.36 48.73,-215.81zm-264.55 270.46c1.58,145.41 119.14,262.97 264.55,264.55 -3.57,-118.44 -6.54,-172.62 -48.73,-215.82 -43.2,-42.19 -97.37,-45.15 -215.81,-48.73zm270.46 264.55c145.41,-1.58 262.98,-119.14 264.55,-264.55 -118.44,3.58 -172.61,6.54 -215.82,48.73 -42.19,43.2 -45.16,97.38 -48.73,215.82z"/>
 </g>
</svg>
